<svg width="100" height="100" viewBox="0 0 100 100" fill="none" xmlns="http://www.w3.org/2000/svg">
<rect width="100" height="100" fill="#1E1E1E"/>
<circle cx="50" cy="50" r="49" fill="#7F5539" stroke="#DE9E48" stroke-width="2"/>
<path d="M44.8066 70.825C43.8533 70.825 42.9549 70.5683 42.1116 70.055C41.3049 69.5783 40.4799 68.7533 39.6366 67.58C38.7932 66.4067 37.8399 64.8117 36.7766 62.795C36.1166 61.5117 35.4199 60.32 34.6866 59.22C33.9899 58.12 33.2199 57.0933 32.3766 56.14C31.5699 55.1867 30.6532 54.3067 29.6266 53.5C28.6366 52.6567 27.5366 51.85 26.3266 51.08H23.5216V68.735L26.8766 69.45V70H13.8416V69.45L17.1966 68.735V32.325L13.8416 31.61V31.06H23.5216V50.31C24.1082 50.31 24.6766 50.2917 25.2266 50.255C25.7766 50.2183 26.3266 50.1817 26.8766 50.145C28.0132 50.035 29.0949 49.6683 30.1216 49.045C31.1482 48.4217 32.1016 47.6333 32.9816 46.68C33.8982 45.69 34.7232 44.645 35.4566 43.545C36.0799 42.5183 36.6116 41.4917 37.0516 40.465C37.5282 39.4017 37.8766 38.3933 38.0966 37.44C38.3533 36.4867 38.4816 35.6433 38.4816 34.91C38.4816 33.92 38.1516 33.1317 37.4916 32.545C36.8316 31.9217 35.8232 31.61 34.4666 31.61V31.06H47.6666V31.61L44.4216 32.325C44.4216 33.535 44.2016 34.8183 43.7616 36.175C43.3216 37.495 42.7166 38.8333 41.9466 40.19C41.2132 41.5467 40.3149 42.8117 39.2516 43.985C38.1882 45.195 37.0149 46.2583 35.7316 47.175C34.4849 48.0917 33.2566 48.8433 32.0466 49.43C30.8732 50.0167 29.7732 50.3833 28.7466 50.53V50.805C30.4332 50.8783 31.9182 51.0983 33.2016 51.465C34.5216 51.8317 35.6949 52.3817 36.7216 53.115C37.7483 53.8117 38.6649 54.7283 39.4716 55.865C40.2783 56.965 41.0483 58.3033 41.7816 59.88C42.7349 62.0067 43.5599 63.7117 44.2566 64.995C44.9533 66.2417 45.6133 67.195 46.2366 67.855C46.8599 68.4783 47.4649 68.8817 48.0516 69.065C48.4183 69.175 48.8033 69.175 49.2066 69.065V69.615C48.7299 69.9817 48.2349 70.2383 47.7216 70.385C47.2082 70.5683 46.6949 70.6783 46.1816 70.715C45.7049 70.7883 45.2466 70.825 44.8066 70.825ZM71.592 31.06C74.452 31.06 76.8353 31.4083 78.742 32.105C80.6853 32.765 82.1337 33.755 83.087 35.075C84.077 36.395 84.572 38.0633 84.572 40.08C84.572 41.62 84.2237 42.9583 83.527 44.095C82.867 45.2317 82.0053 46.1667 80.942 46.9C79.8787 47.6333 78.687 48.2017 77.367 48.605C76.047 48.9717 74.7453 49.1917 73.462 49.265V49.705C75.112 49.7417 76.7253 49.9617 78.302 50.365C79.8787 50.7317 81.2903 51.3 82.537 52.07C83.7837 52.84 84.7737 53.8483 85.507 55.095C86.2403 56.305 86.607 57.8083 86.607 59.605C86.607 61.365 86.277 62.905 85.617 64.225C84.9937 65.5083 84.0587 66.59 82.812 67.47C81.5653 68.3133 80.007 68.955 78.137 69.395C76.267 69.7983 74.0853 70 71.592 70H52.782V69.45L56.137 68.625V32.435L52.782 31.61V31.06H71.592ZM70.217 31.94C68.4203 31.94 66.8803 31.9767 65.597 32.05C64.3137 32.0867 63.2687 32.1783 62.462 32.325V68.79C63.8553 69.0467 66.5137 69.175 70.437 69.175C72.527 69.175 74.3237 68.845 75.827 68.185C77.367 67.525 78.5403 66.4617 79.347 64.995C80.1903 63.4917 80.612 61.5667 80.612 59.22C80.612 56.1033 79.7687 53.8117 78.082 52.345C76.432 50.8417 73.7553 50.0533 70.052 49.98L62.077 49.87V49.265L70.052 49.155C72.1053 49.1183 73.7737 48.7333 75.057 48C76.377 47.23 77.3487 46.1667 77.972 44.81C78.632 43.4533 78.962 41.8767 78.962 40.08C78.962 37.44 78.2287 35.4233 76.762 34.03C75.2953 32.6367 73.1137 31.94 70.217 31.94Z" fill="#DE9E48"/>
</svg>
